<?xml version="1.0" encoding="utf-8"?><svg viewBox="0 0 24 24" xmlns="http://www.w3.org/2000/svg" xmlns:xlink="http://www.w3.org/1999/xlink"><style>:root>svg{display:none}:root>svg:target{display:block}</style><svg fill="none" viewBox="0 0 16 14" id="account_icons--add_files_icon" xmlns="http://www.w3.org/2000/svg"><path d="m8.523 6.257 1.108 1.107a.524.524 0 0 0 .742-.002.533.533 0 0 0-.013-.75L8.37 4.624l-.017.017.017-.017a.523.523 0 0 0-.74 0l-1.99 1.99a.533.533 0 0 0-.028.732.523.523 0 0 0 .758.019l1.107-1.107v4.713H4.25c-1.128 0-2.18-.372-2.96-1.046A3.596 3.596 0 0 1 .023 7.168c0-1.06.418-1.988 1.209-2.687.573-.505 1.323-.862 2.156-1.03a.523.523 0 0 0 .22-.1l4.915 2.906Zm0 0v4.713h3.852c.975 0 1.863-.274 2.5-.77.72-.56 1.102-1.362 1.102-2.32 0-.927-.411-1.722-1.19-2.299a4.124 4.124 0 0 0-1.533-.687l-4.73 1.363ZM3.758 3.161a4.666 4.666 0 0 1 1.308-1.648C5.886.862 6.9.517 8 .517c1.25 0 2.43.45 3.323 1.267.767.702 1.29 1.63 1.533 2.71L3.758 3.162Zm3.905 10.183a.476.476 0 0 1-.14-.337v-1.99h.954v1.99a.476.476 0 0 1-.814.337Z" fill="#000" stroke="#121" stroke-width=".047"/></svg><svg fill="none" viewBox="0 0 22 22" id="account_icons--door_icon" xmlns="http://www.w3.org/2000/svg"><path d="M15.522 2.75a1.161 1.161 0 0 1 1.161 1.161v15.095h1.742a.58.58 0 1 1 0 1.16H3.331a.58.58 0 0 1 0-1.16h1.741V3.91A1.161 1.161 0 0 1 6.233 2.75h9.29ZM13.2 13.2a1.16 1.16 0 1 0 0-2.322 1.16 1.16 0 0 0 0 2.322Z" fill="#8DD3BB"/></svg><svg fill="none" viewBox="0 0 21 20" id="account_icons--edit_photo_icon" xmlns="http://www.w3.org/2000/svg"><path d="M15.31 4.06 2.554 16.848l-.773 1.87 1.871-.772L16.44 5.19l-1.13-1.13Zm2.553-2.552-.553.552 1.13 1.13.552-.553a.774.774 0 0 0 0-1.094l-.035-.035a.774.774 0 0 0-1.094 0Z" stroke="#000" stroke-width="2.063" stroke-linecap="round" stroke-linejoin="round"/></svg><svg fill="none" viewBox="0 0 16 16" id="account_icons--edit_profile_icon" xmlns="http://www.w3.org/2000/svg"><path d="M14.356 1.68a.478.478 0 0 0-.692-.017l-.386.385a.226.226 0 0 0 0 .32l.354.354a.225.225 0 0 0 .321 0l.377-.375m.026-.667-.026.667m.026-.667a.485.485 0 0 1-.026.667m.026-.667-.026.667M6.855 8.46a.258.258 0 0 0-.066.113v.001l-.262.777a.099.099 0 0 0 .123.122l.776-.26h.001a.258.258 0 0 0 .113-.067l5.63-5.642a.258.258 0 0 0 0-.362L6.856 8.46Zm0 0 5.641-5.63a.258.258 0 0 1 .364 0l.31.311-6.315 5.32Z" fill="#000" stroke="#4C4850" stroke-width=".047"/><path d="M12.073 6.052 8.264 9.868a1.284 1.284 0 0 1-.527.32l-.81.27a1.123 1.123 0 0 1-1.385-1.385l.271-.81c.062-.198.171-.38.319-.526l3.816-3.81a.25.25 0 0 0-.176-.427H3.25A1.75 1.75 0 0 0 1.5 5.25v7.5a1.75 1.75 0 0 0 1.75 1.75h7.5a1.75 1.75 0 0 0 1.75-1.75V6.228a.25.25 0 0 0-.427-.176Z" fill="#000"/></svg><svg fill="none" viewBox="0 0 20 19" id="account_icons--heart_icon" xmlns="http://www.w3.org/2000/svg"><path d="M10 18.5a1.5 1.5 0 0 1-.843-.261c-3.684-2.5-5.28-4.216-6.16-5.288C1.124 10.666.226 8.321.252 5.78.28 2.868 2.616.5 5.457.5c2.067 0 3.498 1.164 4.331 2.133a.281.281 0 0 0 .425 0C11.046 1.663 12.477.5 14.543.5c2.842 0 5.178 2.368 5.207 5.28.026 2.541-.873 4.887-2.747 7.172-.88 1.072-2.475 2.787-6.159 5.287a1.5 1.5 0 0 1-.843.261Z" fill="#121"/></svg><svg fill="none" viewBox="0 0 22 22" id="account_icons--timmer_icon" xmlns="http://www.w3.org/2000/svg"><path d="M11 2.75a8.25 8.25 0 1 0 0 16.5 8.25 8.25 0 0 0 0-16.5Zm3.808 9.52H11a.635.635 0 0 1-.635-.635V5.923a.634.634 0 1 1 1.27 0V11h3.173a.635.635 0 0 1 0 1.27Z" fill="#8DD3BB"/></svg><svg fill="none" viewBox="0 0 22 18" id="general_icons--bed_icon" xmlns="http://www.w3.org/2000/svg"><path d="M19.25 7.814a3.724 3.724 0 0 0-1.5-.314H4.25A3.754 3.754 0 0 0 .5 11.25v5.25a.75.75 0 1 0 1.5 0v-.375a.38.38 0 0 1 .375-.375h17.25a.38.38 0 0 1 .375.375v.375a.75.75 0 1 0 1.5 0v-5.25a3.754 3.754 0 0 0-2.25-3.436ZM16.625.75H5.375A2.625 2.625 0 0 0 2.75 3.375V6.75a.187.187 0 0 0 .24.18c.409-.12.833-.18 1.26-.18h.198a.188.188 0 0 0 .188-.166A1.5 1.5 0 0 1 6.125 5.25H8.75a1.5 1.5 0 0 1 1.49 1.334.188.188 0 0 0 .188.166h1.147a.187.187 0 0 0 .187-.166A1.5 1.5 0 0 1 13.25 5.25h2.625a1.5 1.5 0 0 1 1.49 1.334.188.188 0 0 0 .188.166h.197c.427 0 .851.06 1.26.18a.188.188 0 0 0 .24-.18V3.375A2.625 2.625 0 0 0 16.625.75Z" fill="#121"/></svg><svg fill="none" viewBox="0 0 24 20" id="general_icons--flight_icon" xmlns="http://www.w3.org/2000/svg"><path d="M8.747 19.75H7.5a.75.75 0 0 1-.683-1.06l3.021-6.667-4.537-.101-1.655 2.005c-.315.396-.567.573-1.209.573h-.84a.828.828 0 0 1-.689-.33c-.112-.151-.221-.406-.114-.77l.929-3.328a.857.857 0 0 1 .024-.074V9.99a.695.695 0 0 1-.024-.075l-.93-3.35c-.101-.356.009-.605.12-.752A.789.789 0 0 1 1.55 5.5h.887c.48 0 .945.215 1.219.563l1.62 1.97 4.562-.067-3.02-6.656A.75.75 0 0 1 7.5.25h1.26a1.172 1.172 0 0 1 .908.46l5.862 7.124 2.708-.07c.198-.012.747-.015.874-.015 2.59.001 4.138.842 4.138 2.251 0 .443-.178 1.266-1.363 1.789-.7.31-1.634.466-2.776.466-.125 0-.673-.004-.874-.015l-2.708-.072-5.876 7.125a1.174 1.174 0 0 1-.906.457Z" fill="#121"/></svg><svg fill="none" viewBox="0 0 24 24" id="general_icons--google_icon" xmlns="http://www.w3.org/2000/svg"><path d="M21.805 10.041H21V10h-9v4h5.651A5.998 5.998 0 0 1 6 12a6 6 0 0 1 6-6c1.53 0 2.921.577 3.98 1.52L18.81 4.69A9.954 9.954 0 0 0 12 2C6.478 2 2 6.478 2 12c0 5.523 4.478 10 10 10 5.523 0 10-4.477 10-10 0-.67-.069-1.325-.195-1.959Z" fill="#FFC107"/><path d="m3.152 7.346 3.286 2.409A5.997 5.997 0 0 1 11.999 6c1.53 0 2.921.577 3.98 1.52l2.83-2.829A9.954 9.954 0 0 0 11.998 2a9.994 9.994 0 0 0-8.847 5.346Z" fill="#FF3D00"/><path d="M12 22c2.583 0 4.93-.988 6.705-2.596l-3.095-2.619A5.955 5.955 0 0 1 12 18a5.997 5.997 0 0 1-5.641-3.973L3.098 16.54C4.753 19.778 8.114 22 12 22Z" fill="#4CAF50"/><path d="M21.805 10.041H21V10h-9v4h5.651a6.02 6.02 0 0 1-2.043 2.785h.002l3.095 2.619C18.485 19.602 22 17 22 12c0-.67-.069-1.325-.195-1.959Z" fill="#1976D2"/></svg><svg fill="none" viewBox="0 0 14 14" id="general_icons--send_icon" xmlns="http://www.w3.org/2000/svg"><path d="M12.992.072.492 4.803l-.009.003A.727.727 0 0 0 .52 6.17l.013.004h.002l4.29 1.833a.477.477 0 0 0 .461-.108l6.886-6.416a.244.244 0 0 1 .346.346L6.1 8.711l6.893-8.64Zm0 0a.727.727 0 0 1 .772.165m-.771-.165.771.165m0 0a.727.727 0 0 1 .164.774L9.197 13.508 13.765.237ZM8.47 14h.03a.77.77 0 0 0 .72-.483l-.022-.008a.746.746 0 0 1-.697.467h-.03M8.468 14v-.024m0 .024v-.024m0 .024a.735.735 0 0 1-.665-.526L5.97 9.181m2.498 4.796a.711.711 0 0 1-.637-.493.257.257 0 0 1-.006-.017v-.002L5.992 9.173m0 0v.001l-.022.007m.022-.008a.477.477 0 0 1 .107-.461l-.138.211a.5.5 0 0 0 .009.258m.022-.008v-.001l-.022.01" fill="#000" stroke="#121" stroke-width=".047"/></svg><svg fill="none" viewBox="0 0 18 18" id="general_icons--social_icons_01" xmlns="http://www.w3.org/2000/svg"><path fill-rule="evenodd" clip-rule="evenodd" d="M0 9.05c0 4.475 3.25 8.195 7.5 8.95v-6.5H5.25V9H7.5V7c0-2.25 1.45-3.5 3.5-3.5.65 0 1.35.1 2 .2V6h-1.15c-1.1 0-1.35.55-1.35 1.25V9h2.4l-.4 2.5h-2V18c4.25-.755 7.5-4.475 7.5-8.95C18 4.072 13.95 0 9 0S0 4.072 0 9.05Z" fill="#121"/></svg><svg fill="none" viewBox="0 0 20 16" id="general_icons--social_icons_02" xmlns="http://www.w3.org/2000/svg"><path d="M19.703 2.261a7.773 7.773 0 0 1-2.23.611A3.891 3.891 0 0 0 19.18.724a7.75 7.75 0 0 1-2.465.942A3.883 3.883 0 0 0 10.1 5.207 11.024 11.024 0 0 1 2.1 1.151 3.883 3.883 0 0 0 3.3 6.334a3.873 3.873 0 0 1-1.759-.486v.05a3.883 3.883 0 0 0 3.114 3.807 3.91 3.91 0 0 1-1.753.066 3.884 3.884 0 0 0 3.627 2.695A7.79 7.79 0 0 1 .78 14.075a10.98 10.98 0 0 0 5.95 1.744c7.142 0 11.046-5.915 11.046-11.045 0-.167-.004-.335-.012-.502a7.894 7.894 0 0 0 1.936-2.008l.002-.003Z" fill="#121"/></svg><svg fill="none" viewBox="0 0 20 14" id="general_icons--social_icons_03" xmlns="http://www.w3.org/2000/svg"><path d="M19.583 2.57a2.322 2.322 0 0 0-.638-1.059 2.542 2.542 0 0 0-1.116-.618C16.265.48 9.995.48 9.995.48A63.853 63.853 0 0 0 2.17.872a2.633 2.633 0 0 0-1.115.633A2.414 2.414 0 0 0 .406 2.57 24.242 24.242 0 0 0 0 7.147c-.01 1.534.125 3.067.406 4.579.114.399.337.763.646 1.057.31.294.694.507 1.118.62 1.585.41 7.825.41 7.825.41 2.617.03 5.233-.1 7.835-.39.418-.109.801-.322 1.115-.62.304-.288.524-.654.637-1.058A23.65 23.65 0 0 0 20 7.167a22.148 22.148 0 0 0-.417-4.597ZM8 10V4.296l5.217 2.853L8 10Z" fill="#121"/></svg><svg fill="none" viewBox="0 0 17 17" id="general_icons--social_icons_04" xmlns="http://www.w3.org/2000/svg"><path d="M8.498 5.665A2.84 2.84 0 0 0 5.663 8.5a2.84 2.84 0 0 0 2.835 2.835A2.84 2.84 0 0 0 11.332 8.5a2.84 2.84 0 0 0-2.834-2.835ZM16.999 8.5c0-1.174.011-2.337-.055-3.509-.066-1.36-.376-2.568-1.371-3.564C14.575.43 13.368.122 12.008.056 10.835-.01 9.672 0 8.5 0 7.326 0 6.163-.01 4.991.056c-1.36.066-2.568.376-3.564 1.371C.43 2.425.122 3.63.056 4.991-.01 6.165 0 7.328 0 8.5c0 1.172-.011 2.337.055 3.509.066 1.36.376 2.568 1.371 3.563.998.998 2.203 1.306 3.564 1.372C6.165 17.01 7.328 17 8.5 17c1.174 0 2.337.011 3.509-.055 1.36-.066 2.568-.376 3.563-1.371.998-.998 1.306-2.204 1.372-3.564.068-1.172.055-2.335.055-3.509Zm-8.501 4.361A4.355 4.355 0 0 1 4.137 8.5a4.355 4.355 0 0 1 4.36-4.361A4.355 4.355 0 0 1 12.86 8.5a4.355 4.355 0 0 1-4.361 4.361Zm4.54-7.882a1.017 1.017 0 0 1-1.019-1.019c0-.563.455-1.019 1.019-1.019a1.017 1.017 0 1 1 0 2.038Z" fill="#121"/></svg><svg fill="none" viewBox="0 0 24 22" id="general_icons--star_icon" xmlns="http://www.w3.org/2000/svg"><path d="M18.469 21.5a.75.75 0 0 1-.44-.14L12 16.988l-6.029 4.37a.75.75 0 0 1-1.15-.847l2.35-6.964-6.093-4.18A.75.75 0 0 1 1.5 8h7.518l2.268-6.982a.75.75 0 0 1 1.427 0l2.27 6.984H22.5a.75.75 0 0 1 .424 1.37l-6.096 4.176 2.35 6.962a.751.751 0 0 1-.71.99Z" fill="#FFC107"/></svg><svg fill="none" viewBox="0 0 18 20" id="login_icons--apple_icon" xmlns="http://www.w3.org/2000/svg"><path d="M14.517 10.556c-.01-1.599.715-2.804 2.178-3.692-.818-1.172-2.056-1.816-3.687-1.94-1.545-.122-3.235.9-3.853.9-.654 0-2.15-.858-3.326-.858C3.4 5.003.82 6.902.82 10.764c0 1.142.209 2.32.626 3.534.558 1.599 2.569 5.515 4.667 5.452 1.096-.026 1.872-.778 3.3-.778 1.385 0 2.102.778 3.325.778 2.117-.03 3.935-3.59 4.465-5.194-2.838-1.338-2.686-3.918-2.686-4Zm-2.463-7.149c1.188-1.41 1.08-2.695 1.045-3.157-1.05.06-2.264.715-2.955 1.519-.762.862-1.21 1.929-1.114 3.131 1.135.087 2.17-.497 3.024-1.493Z" fill="#000"/></svg><svg fill="none" viewBox="0 0 9 16" id="login_icons--back-to_arrow_icon" xmlns="http://www.w3.org/2000/svg"><path d="M7.75 14.75 1 8l6.75-6.75" stroke="#121" stroke-width="1.5" stroke-linecap="round" stroke-linejoin="round"/></svg><svg fill="none" viewBox="0 0 24 24" id="login_icons--eye-off_icon" xmlns="http://www.w3.org/2000/svg"><path d="M20.25 21a.746.746 0 0 1-.53-.22L3.22 4.28a.75.75 0 0 1 1.06-1.06l16.5 16.5a.75.75 0 0 1-.53 1.28Zm-8.625-6.194-2.428-2.428a.094.094 0 0 0-.158.079 3.005 3.005 0 0 0 2.507 2.507.095.095 0 0 0 .096-.05.093.093 0 0 0-.017-.108Zm.75-5.611 2.431 2.43a.094.094 0 0 0 .16-.08 3.006 3.006 0 0 0-2.51-2.51.094.094 0 0 0-.08.16Z" fill="#000"/><path d="M23.016 12.814a1.508 1.508 0 0 0-.005-1.63c-1.24-1.918-2.85-3.547-4.653-4.712-1.999-1.29-4.202-1.972-6.373-1.972a10.62 10.62 0 0 0-3.367.553.187.187 0 0 0-.073.31l2.215 2.215a.187.187 0 0 0 .179.049 4.5 4.5 0 0 1 5.437 5.438.187.187 0 0 0 .05.178l3.185 3.188a.188.188 0 0 0 .253.01 16.115 16.115 0 0 0 3.152-3.627ZM12 16.5a4.501 4.501 0 0 1-4.373-5.56.188.188 0 0 0-.05-.18L4.444 7.627a.188.188 0 0 0-.253-.01c-1.144.975-2.204 2.162-3.172 3.549a1.496 1.496 0 0 0-.03 1.666c1.238 1.937 2.83 3.569 4.606 4.718 2.002 1.295 4.151 1.951 6.39 1.951a11.165 11.165 0 0 0 3.405-.541.189.189 0 0 0 .125-.135.187.187 0 0 0-.05-.177l-2.225-2.224a.188.188 0 0 0-.178-.05A4.494 4.494 0 0 1 12 16.5Z" fill="#000"/></svg><svg fill="none" viewBox="0 0 24 24" id="login_icons--facebook_icon" xmlns="http://www.w3.org/2000/svg"><path d="M24 12.073C24 5.405 18.627 0 12 0S0 5.405 0 12.073C0 18.1 4.388 23.094 10.125 24v-8.437H7.078v-3.49h3.047v-2.66c0-3.025 1.792-4.697 4.533-4.697 1.313 0 2.686.236 2.686.236v2.971H15.83c-1.491 0-1.956.93-1.956 1.886v2.264h3.328l-.532 3.49h-2.796V24C19.612 23.094 24 18.1 24 12.073Z" fill="#1877F2"/></svg><svg fill="none" viewBox="0 0 24 24" id="login_icons--password_visible_icon" xmlns="http://www.w3.org/2000/svg"><path d="M12 15a3 3 0 1 0 0-6 3 3 0 0 0 0 6Z" fill="#000"/><path d="M23.01 11.184c-1.241-1.918-2.85-3.547-4.654-4.712C16.36 5.182 14.157 4.5 11.985 4.5c-1.993 0-3.953.57-5.825 1.693-1.91 1.145-3.64 2.818-5.141 4.972a1.496 1.496 0 0 0-.03 1.666c1.238 1.937 2.83 3.569 4.606 4.718 2 1.295 4.151 1.951 6.39 1.951 2.19 0 4.397-.676 6.384-1.956 1.803-1.16 3.41-2.796 4.645-4.73a1.51 1.51 0 0 0-.005-1.63ZM12 16.5a4.5 4.5 0 1 1 0-9 4.5 4.5 0 0 1 0 9Z" fill="#000"/></svg></svg>