<svg width="20" height="19" viewBox="0 0 20 19" fill="none" xmlns="http://www.w3.org/2000/svg">
<path d="M10.0005 18.5C9.69944 18.4996 9.40544 18.4086 9.15677 18.2389C5.47286 15.7381 3.87771 14.0234 2.99786 12.9514C1.12286 10.6663 0.225208 8.32016 0.250521 5.77953C0.280052 2.86813 2.61583 0.5 5.4574 0.5C7.52365 0.5 8.95474 1.66391 9.78818 2.63328C9.81458 2.66368 9.8472 2.68805 9.88383 2.70476C9.92047 2.72146 9.96026 2.73011 10.0005 2.73011C10.0408 2.73011 10.0806 2.72146 10.1172 2.70476C10.1538 2.68805 10.1865 2.66368 10.2129 2.63328C11.0463 1.66297 12.4774 0.5 14.5436 0.5C17.3852 0.5 19.721 2.86812 19.7505 5.78C19.7758 8.32109 18.8772 10.6672 17.0032 12.9519C16.1233 14.0239 14.5282 15.7386 10.8443 18.2394C10.5955 18.4089 10.3016 18.4998 10.0005 18.5Z" fill="#112211"/>
</svg>
