<svg width="14" height="14" viewBox="0 0 14 14" fill="none" xmlns="http://www.w3.org/2000/svg">
<path d="M13.7811 0.220251C13.6788 0.118027 13.5492 0.0475357 13.4078 0.017264C13.2665 -0.0130076 13.1193 -0.00176929 12.9842 0.0496261L0.483266 4.78119H0.480766C0.336629 4.83663 0.213118 4.93521 0.127104 5.06347C0.0410898 5.19172 -0.00323491 5.34341 0.000183888 5.4978C0.00360268 5.65219 0.0545983 5.80177 0.146206 5.92609C0.237813 6.05042 0.365566 6.14344 0.512016 6.19244L0.524828 6.1965L4.81545 8.02869C4.89914 8.05409 4.98803 8.0571 5.07324 8.03742C5.15846 8.01773 5.23701 7.97604 5.30108 7.9165L12.1873 1.49994C12.2078 1.47942 12.2322 1.46314 12.259 1.45204C12.2858 1.44093 12.3146 1.43522 12.3436 1.43522C12.3726 1.43522 12.4013 1.44093 12.4281 1.45204C12.455 1.46314 12.4793 1.47942 12.4998 1.49994C12.5203 1.52046 12.5366 1.54482 12.5477 1.57163C12.5588 1.59844 12.5645 1.62717 12.5645 1.65619C12.5645 1.68521 12.5588 1.71394 12.5477 1.74075C12.5366 1.76756 12.5203 1.79192 12.4998 1.81244L6.08295 8.69556C6.02342 8.75963 5.98172 8.83819 5.96204 8.9234C5.94235 9.00861 5.94536 9.0975 5.97077 9.18119L7.80358 13.4743C7.80545 13.4806 7.80733 13.4862 7.80952 13.4921C7.90952 13.7818 8.16264 13.9862 8.46858 13.9999H8.49983C8.65428 14.0008 8.80542 13.9552 8.9336 13.8691C9.06178 13.7829 9.16108 13.6602 9.21858 13.5168L13.9495 1.01931C14.0016 0.884089 14.0135 0.736656 13.9836 0.594848C13.9537 0.453039 13.8834 0.322929 13.7811 0.220251V0.220251Z" fill="black"/>
</svg>
